<?xml version="1.0" encoding="UTF-8"?>
<svg id="Layer_2" data-name="Layer 2" xmlns="http://www.w3.org/2000/svg" viewBox="0 0 452.61 152.09">
  <defs>
    <style>
      .cls-1 {
        fill: #fff;
      }
    </style>
  </defs>
  <g id="Layer_7" data-name="Layer 7">
    <g id="Logo">
      <g>
        <path class="cls-1" d="M76.21,41.34h-12.16c-1.1,0-2,.9-2,2l-.03,7.25c-8.1-9.16-18.37-9.26-24.63-9.26C16.6,41.33,0,58.8,0,80.29s16.6,38.96,37.39,38.96c6.11,0,16.6-.17,24.63-9.26v8.39c0,9.26-12.05,14.79-19.22,14.85-13.3,.11-18.92-3.91-23.65-5.92-.21-.09-.44-.15-.67-.18-1.06-.15-2.05,.57-2.34,1.6l-2.69,9.56-.2,.97c-.49,2.45,.45,4.96,2.44,6.47,.61,.46,1.26,.86,1.52,.99,6.88,3.38,18.39,5.37,25.41,5.37,22.36,0,40.53-14.68,40.53-36.16l.03-67.61c0-3.84-3.14-6.98-6.98-6.98h.01Zm-34.73,59.19c-11.21,0-20.32-8.58-20.32-20.14s9.11-20.14,20.32-20.14,20.32,8.58,20.32,20.14-9.11,20.14-20.32,20.14Z"/>
        <path class="cls-1" d="M143.23,60.16c-16.53,0-23.15,16.19-23.15,24.19v33.12c0,1.1-.9,2-2,2h-12.15c-3.8,0-6.91-3.11-6.91-6.91V43.32c0-1.1,.9-2,2-2h12.15c3.8,0,6.91,3.11,6.91,6.91v2.41c8.4-9.19,18.97-9.27,21.93-9.27h2.96c1.91,0,4,1.91,4,4v10.85c0,2.17-1.78,3.95-3.95,3.95h-1.79Z"/>
        <path class="cls-1" d="M235.83,80.39c0,21.54-18.39,39.06-41.16,39.06s-41.16-17.51-41.16-39.06,18.39-39.06,41.16-39.06,41.16,17.51,41.16,39.06Zm-20.84,0c0-11.56-9.11-20.14-20.32-20.14s-20.32,8.58-20.32,20.14,9.11,20.14,20.32,20.14,20.32-8.58,20.32-20.14h0Z"/>
        <path class="cls-1" d="M429.42,48.06l-2.96,10.33c-.41,1.43,.02,2.95,1.09,3.99,4.79,4.69,8.05,10.27,8,18.15-.08,13.71-10.94,23.83-24.24,23.76-13.3-.08-24.04-10.32-23.97-24.03,.03-6,1.75-9.85,3.63-12.66,.98-1.47,.92-3.39-.18-4.76l-6.89-8.57c-.78-.97-2.26-1-3.07-.06-6.1,7.01-10.47,14.61-10.54,25.95-.12,21.54,18.17,39.16,40.94,39.29,22.77,.13,41.26-17.28,41.38-38.82,.08-14.83-7.99-26.79-20.27-33.77-1.12-.64-2.56-.05-2.91,1.2h-.01Z"/>
        <path class="cls-1" d="M411.25,40.93c5.01-.51,8.98-2.15,11.79-5.11,9.5-10.01,4.95-35.82,4.95-35.82,0,0-21.06,5.09-27.63,19.31-2.35,5.09-3.3,10.27-.41,15.97l.31,.57c4.04-10.57,9.67-16.52,16.31-23.24-16.38,26.68-15.51,41-9.23,51.38h-5.7l-1.29,4.68h6.3c2.18,0,3.73,.48,4.74,1.48,.42,.42,.76,.9,1,1.46h-10.79l-1.24,4.38h12.28c-.12,.38-.27,.73-.46,1.06-.46,.76-1.17,1.36-2.09,1.77-.92,.41-2.07,.62-3.43,.62h-5.83l.03,3.4,11.3,13.71,.08,.09h6.6l-10.54-12.9c2.29-.17,4.19-.68,5.64-1.53,1.52-.88,2.64-2.05,3.35-3.48,.42-.85,.71-1.77,.88-2.75h3.29l1.24-4.38h-4.61c-.21-1.01-.56-1.95-1.04-2.81-.08-.15-.17-.29-.26-.43l4.66,.03,1.25-4.4h-9.79c-2.98-3.88-6.44-11.11-5.22-23.14,1.02,.2,2.17,.22,3.55,.07h.01Z"/>
        <path class="cls-1" d="M358.02,117.43c0,1.1-.9,2-2,2h-11.87c-3.8,0-6.91-3.11-6.91-6.91v-38.53c0-4.46-1.37-13.74-11.5-13.74-10.99,0-12.02,10.99-12.36,15.97v41.2c0,1.1-.9,2-2,2h-11.87c-3.8,0-6.91-3.11-6.91-6.91v-38.53c0-4.46-1.2-13.74-11.5-13.74-11.68,0-12.53,12.53-12.53,17v40.17c0,1.1-.9,2-2,2h-11.87c-3.8,0-6.91-3.11-6.91-6.91V43.32c0-1.1,.9-2,2-2h12.25c3.16,0,6.52,2.94,6.52,6.52v1.91c4.02-8.15,13.83-8.5,16.06-8.43,6.73,.21,11.62,1.46,18.32,9.81,10.15-10.4,21.19-9.8,22.73-9.81,23.18-.16,32.61,17.91,32.35,27.82v48.29h0Z"/>
      </g>
    </g>
  </g>
</svg>